HIERARCHY
ROOT Hips
{
	OFFSET 54.537498 -7.364145 93.819199
	CHANNELS 6 Xposition Yposition Zposition Xrotation Yrotation Zrotation
	JOINT spine
	{
		OFFSET 0.000000 -0.429886 7.475601
		CHANNELS 3 Xrotation Yrotation Zrotation
		JOINT spine1
		{
			OFFSET 0.000000 -0.000001 9.923012
			CHANNELS 3 Xrotation Yrotation Zrotation
			JOINT spine2
			{
				OFFSET 0.000000 -0.000001 9.508041
				CHANNELS 3 Xrotation Yrotation Zrotation
				JOINT Neck
				{
					OFFSET 0.000000 -1.163845 24.411095
					CHANNELS 3 Xrotation Yrotation Zrotation
					JOINT Head
					{
						OFFSET 0.000000 -0.000001 7.375229
						CHANNELS 3 Xrotation Yrotation Zrotation
						End Site
						{
							OFFSET 0.000000 5.887407 17.852203
						}
					}
				}
				JOINT RightShoulder
				{
					OFFSET -4.003559 0.557466 10.267906
					CHANNELS 3 Xrotation Yrotation Zrotation
					JOINT RightArm
					{
						OFFSET 0.000000 -0.000002 13.467300
						CHANNELS 3 Xrotation Yrotation Zrotation
						JOINT RightArmRoll
						{
							OFFSET 0.000000 -0.000001 6.798584
							CHANNELS 3 Xrotation Yrotation Zrotation
							JOINT RightForeArm
							{
								OFFSET 0.000000 -0.000003 19.801804
								CHANNELS 3 Xrotation Yrotation Zrotation
								JOINT RightForeArmRoll
								{
									OFFSET 0.000000 -0.000001 7.629044
									CHANNELS 3 Xrotation Yrotation Zrotation
									JOINT RightHand
									{
										OFFSET 0.000000 -0.000002 15.309799
										CHANNELS 3 Xrotation Yrotation Zrotation
										End Site
										{
											OFFSET 0.000000 0.000000 0.100006
										}
									}
								}
							}
						}
					}
				}
				JOINT LeftShoulder
				{
					OFFSET 4.003559 0.557466 10.267906
					CHANNELS 3 Xrotation Yrotation Zrotation
					JOINT LeftArm
					{
						OFFSET 0.000000 -0.000002 13.467300
						CHANNELS 3 Xrotation Yrotation Zrotation
						JOINT LeftArmRoll
						{
							OFFSET 0.000000 -0.000001 6.798584
							CHANNELS 3 Xrotation Yrotation Zrotation
							JOINT LeftForeArm
							{
								OFFSET 0.000000 -0.000003 19.801804
								CHANNELS 3 Xrotation Yrotation Zrotation
								JOINT LeftForeArmRoll
								{
									OFFSET 0.000000 -0.000001 7.629044
									CHANNELS 3 Xrotation Yrotation Zrotation
									JOINT LeftHand
									{
										OFFSET 0.000000 -0.000002 15.309799
										CHANNELS 3 Xrotation Yrotation Zrotation
										End Site
										{
											OFFSET 0.000000 0.000000 0.100006
										}
									}
								}
							}
						}
					}
				}
			}
		}
	}
	JOINT RightUpLeg
	{
		OFFSET -6.626091 1.019270 -1.215050
		CHANNELS 3 Xrotation Yrotation Zrotation
		JOINT RightUpLegRoll
		{
			OFFSET 0.000000 -0.000003 17.951698
			CHANNELS 3 Xrotation Yrotation Zrotation
			JOINT RightLeg
			{
				OFFSET 0.000000 0.000004 -22.230400
				CHANNELS 3 Xrotation Yrotation Zrotation
				JOINT RightLegRoll
				{
					OFFSET 0.000000 -0.000004 22.303200
					CHANNELS 3 Xrotation Yrotation Zrotation
					JOINT RightFoot
					{
						OFFSET 0.000000 -0.000003 18.563599
						CHANNELS 3 Xrotation Yrotation Zrotation
						JOINT RightToeBase
						{
							OFFSET 0.000000 -0.000002 15.518295
							CHANNELS 3 Xrotation Yrotation Zrotation
							End Site
							{
								OFFSET 0.006577 0.866261 7.515396
							}
						}
					}
				}
			}
		}
	}
	JOINT LeftUpLeg
	{
		OFFSET 6.626091 1.019270 -1.215050
		CHANNELS 3 Xrotation Yrotation Zrotation
		JOINT LeftUpLegRoll
		{
			OFFSET 0.000000 -0.000003 17.951797
			CHANNELS 3 Xrotation Yrotation Zrotation
			JOINT LeftLeg
			{
				OFFSET 0.000000 -0.000003 22.230309
				CHANNELS 3 Xrotation Yrotation Zrotation
				JOINT LeftLegRoll
				{
					OFFSET 0.000000 -0.000004 22.509308
					CHANNELS 3 Xrotation Yrotation Zrotation
					JOINT LeftFoot
					{
						OFFSET 0.000000 -0.000003 18.357498
						CHANNELS 3 Xrotation Yrotation Zrotation
						JOINT LeftToeBase
						{
							OFFSET 0.000000 -0.000003 15.518295
							CHANNELS 3 Xrotation Yrotation Zrotation
							End Site
							{
								OFFSET -0.029476 0.866262 7.515381
							}
						}
					}
				}
			}
		}
	}
}
MOTION
Frames: 13
Frame Time: 0.041667
55.127502 -8.073087 93.755203 -3.402071 1.195181 -2.373005 -1.057016 -0.231336 0.131296 1.888197 -0.443710 0.269014 3.533285 -0.440606 0.274196 4.656643 8.472827 -3.277071 2.320439 -12.416926 -2.783811 -1.334580 -70.019910 -2.812857 -54.934720 -105.621123 -43.283008 -0.000001 0.000000 -0.000003 0.362713 -12.543557 -0.355305 -0.000000 -0.000001 -3.000001 -5.000220 -7.998713 0.000161 -6.147792 77.314880 8.688704 -67.201473 99.079885 45.393051 -0.000001 -0.000006 0.000006 3.696995 5.375915 0.651196 -0.000005 0.000004 3.007350 -5.000218 7.999341 -0.000086 1.126496 -179.047194 -0.464808 -179.999991 0.000005 -1.094000 172.674436 -1.753581 -0.492409 -0.000007 0.000001 0.131216 70.250907 6.858422 2.127830 25.456972 -7.355615 -0.000000 2.875312 177.187538 1.629039 -0.000005 -0.000005 -1.077341 -4.661357 2.544826 0.224486 -0.000007 0.000001 -0.046093 68.850151 -6.872996 -2.190921 25.456967 7.355617 -0.000001 
55.129105 -8.064300 93.760803 -3.403688 1.195049 -2.385949 -1.055776 -0.232595 0.132274 1.889518 -0.447682 0.270387 3.534606 -0.444550 0.275623 4.662034 8.514441 -3.267137 2.319985 -12.427521 -2.776950 -1.281217 -70.017902 -2.753576 -55.186095 -105.698045 -43.654270 -0.000001 -0.000000 -0.000002 0.462895 -12.602505 -0.340587 -0.000001 -0.000001 -2.999999 -5.000219 -7.998712 0.000161 -6.179614 77.322393 8.723221 -67.253383 99.076149 45.492431 -0.000001 -0.000006 0.000003 3.941549 5.409014 0.644500 -0.000005 0.000004 3.007351 -5.000219 7.999341 -0.000086 1.126566 -179.048177 -0.466620 -179.999991 0.000005 -1.094000 172.680187 -1.751612 -0.492975 -0.000007 0.000001 0.131216 70.248352 6.858401 2.127884 25.456969 -7.355615 -0.000001 2.876067 177.189532 1.631003 -0.000005 -0.000004 -1.077350 -4.660481 2.543464 0.224466 -0.000007 0.000001 -0.046093 68.850568 -6.872985 -2.190895 25.456967 7.355617 -0.000001 
55.133507 -8.080761 93.759911 -3.405419 1.195037 -2.399273 -1.054466 -0.233885 0.133282 1.890890 -0.451767 0.271801 3.535979 -0.448605 0.277094 4.667527 8.557541 -3.257135 2.319531 -12.439218 -2.770046 -1.226296 -70.016986 -2.692673 -55.440581 -105.777487 -44.029425 -0.000002 -0.000000 -0.000003 0.555348 -12.663026 -0.326108 0.000001 -0.000001 -2.999999 -5.000220 -7.998713 0.000161 -6.210666 77.330418 8.756955 -67.306398 99.070753 45.591520 0.000000 -0.000006 0.000006 4.179242 5.442209 0.637505 -0.000004 0.000004 3.007349 -5.000216 7.999340 -0.000084 1.126876 -179.048177 -0.468476 -179.999991 0.000005 -1.094000 172.686102 -1.748668 -0.492413 -0.000006 0.000001 0.131216 70.245600 6.858412 2.127856 25.456972 -7.355617 -0.000001 2.876996 177.190543 1.632888 -0.000005 -0.000005 -1.077350 -4.659635 2.542032 0.224434 -0.000007 0.000001 -0.046093 68.850991 -6.872977 -2.190866 25.456971 7.355616 -0.000000 
55.132706 -8.069956 93.762894 -3.407222 1.195105 -2.412861 -1.053117 -0.235198 0.134312 1.892310 -0.455931 0.273246 3.537401 -0.452741 0.278597 4.673098 8.601692 -3.247077 2.319066 -12.451513 -2.763110 -1.170281 -70.016761 -2.630635 -55.696368 -105.859067 -44.406499 -0.000000 -0.000001 -0.000002 0.642397 -12.724528 -0.311751 0.000001 -0.000000 -3.000001 -5.000219 -7.998712 0.000161 -6.241186 77.338956 8.790161 -67.360336 99.064196 45.690506 -0.000001 -0.000005 0.000007 4.412152 5.475475 0.630238 -0.000004 0.000004 3.007349 -5.000218 7.999341 -0.000083 1.127365 -179.048177 -0.470378 -179.999991 0.000005 -1.094000 172.692126 -1.746699 -0.492971 -0.000007 0.000001 0.131216 70.242724 6.858383 2.127929 25.456972 -7.355616 -0.000001 2.878030 177.192538 1.634787 -0.000005 -0.000004 -1.077360 -4.658820 2.540570 0.224396 -0.000007 0.000001 -0.046093 68.851408 -6.872965 -2.190938 25.456964 7.355617 -0.000000 
55.141502 -8.064858 93.762497 -3.409060 1.195222 -2.426605 -1.051750 -0.236524 0.135355 1.893752 -0.460143 0.274709 3.538842 -0.456922 0.280118 4.678710 8.646452 -3.236993 2.318596 -12.464306 -2.756157 -1.113629 -70.016822 -2.567943 -55.950536 -105.941985 -44.782258 -0.000000 -0.000001 -0.000003 0.726380 -12.786808 -0.297382 -0.000000 -0.000001 -3.000000 -5.000221 -7.998712 0.000160 -6.271432 77.347699 8.823086 -67.414664 99.056984 45.789438 -0.000000 -0.000006 0.000008 4.642329 5.508781 0.622706 -0.000003 0.000004 3.007350 -5.000218 7.999342 -0.000082 1.127942 -179.049188 -0.472326 -179.999991 0.000005 -1.094000 172.698191 -1.743756 -0.492406 -0.000008 0.000001 0.131216 70.239760 6.858388 2.127912 25.456969 -7.355615 -0.000000 2.879147 177.193535 1.636621 -0.000005 -0.000004 -1.077370 -4.658023 2.539077 0.224354 -0.000006 0.000001 -0.046093 68.851729 -6.872985 -2.190922 25.456967 7.355615 -0.000001 
55.140305 -8.062197 93.764793 -3.410913 1.195360 -2.440379 -1.050367 -0.237852 0.136402 1.895203 -0.464365 0.276175 3.540295 -0.461114 0.281643 4.684329 8.691348 -3.226909 2.318128 -12.477104 -2.749202 -1.056825 -70.017068 -2.505087 -56.201286 -106.025730 -45.154746 -0.000001 0.000000 -0.000003 0.809625 -12.849161 -0.282875 -0.000001 -0.000000 -2.999999 -5.000220 -7.998712 0.000160 -6.301676 77.356537 8.856005 -67.468704 99.049627 45.887967 0.000000 -0.000006 0.000006 4.871841 5.542132 0.614904 -0.000002 0.000004 3.007350 -5.000217 7.999341 -0.000084 1.128555 -179.049188 -0.474260 -179.999991 0.000005 -1.094000 172.704297 -1.741788 -0.492976 -0.000007 0.000001 0.131216 70.236693 6.858423 2.127807 25.456967 -7.355614 -0.000000 2.880278 177.194532 1.638447 -0.000005 -0.000004 -1.077370 -4.657227 2.537585 0.224311 -0.000007 0.000001 -0.046093 68.852152 -6.872976 -2.190894 25.456965 7.355616 -0.000001 
55.132702 -8.052717 93.764198 -3.412746 1.195468 -2.454084 -1.048998 -0.239174 0.137443 1.896644 -0.468564 0.277634 3.541727 -0.465283 0.283159 4.689939 8.735958 -3.216849 2.317667 -12.489797 -2.742250 -1.000328 -70.017000 -2.442551 -56.447275 -106.109584 -45.522357 -0.000001 -0.000001 -0.000004 0.894470 -12.911081 -0.268091 0.000000 -0.000000 -2.999999 -5.000219 -7.998712 0.000160 -6.332141 77.365266 8.889157 -67.523510 99.042558 45.987558 0.000000 -0.000005 0.000008 5.102756 5.575488 0.606851 -0.000004 0.000004 3.007349 -5.000216 7.999341 -0.000085 1.129114 -179.050185 -0.476202 -179.999991 0.000005 -1.094000 172.710363 -1.738844 -0.492412 -0.000007 0.000001 0.131216 70.233708 6.858393 2.127887 25.456967 -7.355617 -0.000002 2.881363 177.196540 1.640334 -0.000005 -0.000004 -1.077380 -4.656432 2.536093 0.224270 -0.000006 0.000001 -0.046093 68.852460 -6.872958 -2.190972 25.456965 7.355615 -0.000000 
55.134003 -8.050068 93.765793 -3.414524 1.195515 -2.467594 -1.047659 -0.240481 0.138468 1.898045 -0.472706 0.279071 3.543140 -0.469396 0.284654 4.695502 8.779819 -3.206840 2.317201 -12.501991 -2.735327 -0.944623 -70.016406 -2.380844 -56.685847 -106.193076 -45.882171 0.000000 -0.000001 -0.000003 0.983250 -12.972355 -0.252875 0.000001 -0.000001 -3.000001 -5.000219 -7.998713 0.000160 -6.362957 77.373592 8.922653 -67.577284 99.036343 46.086654 0.000000 -0.000007 0.000008 5.337138 5.608855 0.598548 -0.000003 0.000004 3.007350 -5.000216 7.999341 -0.000085 1.129553 -179.050185 -0.478091 -179.999991 0.000005 -1.094000 172.716346 -1.736875 -0.492973 -0.000007 0.000001 0.131216 70.230840 6.858399 2.127863 25.456967 -7.355616 -0.000001 2.882381 177.197551 1.642194 -0.000005 -0.000004 -1.077390 -4.655605 2.534640 0.224234 -0.000007 0.000001 -0.046093 68.852876 -6.872948 -2.190943 25.456965 7.355617 -0.000000 
55.122204 -8.019977 93.764801 -3.416216 1.195473 -2.480811 -1.046378 -0.241762 0.139466 1.899406 -0.476756 0.280475 3.544502 -0.473418 0.286113 4.700994 8.822482 -3.196910 2.316752 -12.513284 -2.728429 -0.890196 -70.015081 -2.320455 -56.915451 -106.275189 -46.232447 0.000000 -0.000002 -0.000004 1.078306 -13.032271 -0.237078 0.000001 -0.000001 -3.000000 -5.000218 -7.998714 0.000160 -6.394515 77.381481 8.956906 -67.630484 99.031439 46.186309 -0.000001 -0.000006 0.000007 5.577065 5.642212 0.589965 -0.000003 0.000005 3.007350 -5.000217 7.999341 -0.000084 1.129794 -179.050185 -0.479927 -179.999991 0.000005 -1.094000 172.722220 -1.733930 -0.492417 -0.000007 0.000001 0.131216 70.228196 6.858411 2.127829 25.456967 -7.355616 -0.000002 2.883250 177.198548 1.644082 -0.000005 -0.000004 -1.077390 -4.654749 2.533238 0.224207 -0.000007 0.000001 -0.046093 68.853300 -6.872940 -2.191016 25.456965 7.355615 -0.000000 
55.125504 -8.019926 93.766098 -3.417786 1.195291 -2.493609 -1.045158 -0.243009 0.140432 1.900697 -0.480681 0.281831 3.545784 -0.477315 0.287525 4.706377 8.863511 -3.187079 2.316299 -12.523482 -2.721586 -0.837519 -70.012533 -2.261886 -57.134502 -106.355621 -46.571324 -0.000001 -0.000001 -0.000003 1.181969 -13.090510 -0.220537 -0.000001 -0.000001 -3.000000 -5.000220 -7.998712 0.000160 -6.426950 77.388652 8.992044 -67.682366 99.028351 46.286228 -0.000000 -0.000007 0.000007 5.824584 5.675542 0.581116 -0.000003 0.000005 3.007350 -5.000219 7.999341 -0.000086 1.129764 -179.051182 -0.481713 -179.999991 0.000005 -1.094000 172.727916 -1.731960 -0.492987 -0.000007 0.000001 0.131216 70.225649 6.858422 2.127889 25.456972 -7.355616 -0.000001 2.883938 177.200556 1.646069 -0.000005 -0.000004 -1.077390 -4.653863 2.531896 0.224190 -0.000007 0.000001 -0.046093 68.853730 -6.872965 -2.190892 25.456965 7.355617 -0.000001 
55.133602 -8.026016 93.767593 -3.419213 1.194950 -2.505870 -1.044031 -0.244212 0.141354 1.901908 -0.484445 0.283128 3.546996 -0.481054 0.288873 4.711637 8.902449 -3.177364 2.315867 -12.532280 -2.714791 -0.787086 -70.008667 -2.205642 -57.341262 -106.433397 -46.896857 -0.000001 -0.000001 -0.000003 1.296585 -13.146453 -0.203086 0.000001 -0.000000 -3.000001 -5.000222 -7.998713 0.000160 -6.460469 77.394882 9.028282 -67.732882 99.027580 46.386536 -0.000001 -0.000006 0.000008 6.081781 5.708844 0.571979 -0.000002 0.000004 3.007348 -5.000216 7.999341 -0.000084 1.129391 -179.051182 -0.483388 -179.999991 0.000005 -1.094000 172.733408 -1.730003 -0.492569 -0.000008 0.000001 0.131216 70.223518 6.858411 2.127918 25.456974 -7.355616 -0.000001 2.884382 177.202537 1.648118 -0.000005 -0.000004 -1.077390 -4.652918 2.530643 0.224188 -0.000006 0.000001 -0.046093 68.854140 -6.872956 -2.190967 25.456965 7.355616 -0.000001 
55.132504 -8.015278 93.768097 -3.420463 1.194400 -2.517496 -1.043000 -0.245361 0.142222 1.903010 -0.488015 0.284353 3.548098 -0.484600 0.290147 4.716723 8.938847 -3.167803 2.315460 -12.539378 -2.708069 -0.739379 -70.002971 -2.152233 -57.534747 -106.507880 -47.207822 -0.000000 -0.000002 -0.000004 1.424502 -13.199765 -0.184555 -0.000000 -0.000001 -3.000001 -5.000222 -7.998713 0.000161 -6.495389 77.400175 9.065936 -67.781267 99.029615 46.487039 -0.000001 -0.000006 0.000005 6.350698 5.742126 0.562538 -0.000003 0.000004 3.007350 -5.000216 7.999341 -0.000086 1.128592 -179.051182 -0.484953 -179.999991 0.000005 -1.094000 172.738640 -1.727042 -0.493029 -0.000007 0.000001 0.131216 70.221824 6.858406 2.127823 25.456971 -7.355616 -0.000001 2.884548 177.204532 1.650230 -0.000005 -0.000004 -1.077390 -4.651903 2.529491 0.224202 -0.000007 0.000001 -0.046093 68.854570 -6.872980 -2.190944 25.456962 7.355616 -0.000001 
55.119404 -7.984037 93.766998 -3.421504 1.193610 -2.528362 -1.042098 -0.246448 0.143029 1.903990 -0.491357 0.285493 3.549079 -0.487920 0.291334 4.721612 8.972267 -3.158405 2.315052 -12.544374 -2.701441 -0.694888 -69.995341 -2.102164 -57.712585 -106.578456 -47.501582 -0.000000 -0.000002 -0.000005 1.568051 -13.249914 -0.164775 -0.000001 -0.000001 -2.999999 -5.000221 -7.998712 0.000161 -6.531861 77.404116 9.105157 -67.827959 99.034915 46.588532 -0.000001 -0.000007 0.000005 6.633434 5.775365 0.552772 -0.000003 0.000004 3.007351 -5.000218 7.999340 -0.000084 1.127313 -179.050172 -0.486369 -179.999991 0.000005 -1.094000 172.743598 -1.726072 -0.492754 -0.000007 0.000001 0.131215 70.220553 6.858414 2.127802 25.456969 -7.355616 -0.000001 2.884363 177.206540 1.652430 -0.000005 -0.000004 -1.077380 -4.650817 2.528458 0.224237 -0.000007 0.000001 -0.046093 68.855103 -6.872978 -2.190912 25.456967 7.355617 -0.000001 
